<svg width="160" height="47" viewBox="0 0 160 47" fill="none" xmlns="http://www.w3.org/2000/svg">
<g clip-path="url(#clip0_1_228)">
<path d="M154.074 47H5.92593C2.66667 47 0 44.3562 0 41.125V5.875C0 2.64375 2.66667 0 5.92593 0H154.074C157.333 0 160 2.64375 160 5.875V41.125C160 44.3562 157.333 47 154.074 47Z" fill="black"/>
<path d="M154.074 0.94C156.824 0.94 159.052 3.149 159.052 5.875V41.125C159.052 43.851 156.824 46.06 154.074 46.06H5.92593C3.1763 46.06 0.948148 43.851 0.948148 41.125V5.875C0.948148 3.149 3.1763 0.94 5.92593 0.94H154.074ZM154.074 0H5.92593C2.66667 0 0 2.64375 0 5.875V41.125C0 44.3562 2.66667 47 5.92593 47H154.074C157.333 47 160 44.3562 160 41.125V5.875C160 2.64375 157.333 0 154.074 0Z" fill="#A6A6A6"/>
<path d="M80.7578 25.5572C77.9726 25.5572 75.6971 27.6604 75.6971 30.5509C75.6971 33.4297 77.9726 35.5447 80.7578 35.5447C83.543 35.5447 85.8186 33.4297 85.8186 30.5509C85.8186 27.6604 83.543 25.5572 80.7578 25.5572ZM80.7578 33.5824C79.2289 33.5824 77.9134 32.3369 77.9134 30.5509C77.9134 28.7532 79.2289 27.5194 80.7578 27.5194C82.2867 27.5194 83.6023 28.7532 83.6023 30.5509C83.6023 32.3369 82.2749 33.5824 80.7578 33.5824ZM69.7119 25.5572C66.9267 25.5572 64.6511 27.6604 64.6511 30.5509C64.6511 33.4297 66.9267 35.5447 69.7119 35.5447C72.4971 35.5447 74.7726 33.4297 74.7726 30.5509C74.7726 27.6604 72.4971 25.5572 69.7119 25.5572ZM69.7119 33.5824C68.183 33.5824 66.8674 32.3369 66.8674 30.5509C66.8674 28.7532 68.183 27.5194 69.7119 27.5194C71.2408 27.5194 72.5563 28.7532 72.5563 30.5509C72.5563 32.3369 71.2408 33.5824 69.7119 33.5824ZM56.58 27.0964V29.2114H61.7C61.546 30.3982 61.143 31.2794 60.5386 31.8787C59.7919 32.6189 58.6304 33.4297 56.5919 33.4297C53.4393 33.4297 50.9741 30.9152 50.9741 27.7897C50.9741 24.6642 53.4393 22.1497 56.5919 22.1497C58.2867 22.1497 59.5311 22.8077 60.4437 23.6654L61.9489 22.1732C60.6689 20.9629 58.9741 20.0347 56.58 20.0347C52.266 20.0347 48.6393 23.5127 48.6393 27.8014C48.6393 32.0784 52.266 35.5682 56.58 35.5682C58.9149 35.5682 60.6689 34.8162 62.0437 33.3944C63.4541 31.9962 63.8926 30.0222 63.8926 28.4359C63.8926 27.9424 63.8571 27.4842 63.7741 27.1082H56.58V27.0964ZM110.281 28.7414C109.866 27.6252 108.586 25.5572 105.967 25.5572C103.371 25.5572 101.214 27.5782 101.214 30.5509C101.214 33.3474 103.347 35.5447 106.216 35.5447C108.527 35.5447 109.866 34.1464 110.411 33.3357L108.693 32.1959C108.124 33.0302 107.342 33.5824 106.216 33.5824C105.09 33.5824 104.284 33.0654 103.774 32.0667L110.518 29.3054L110.281 28.7414ZM103.407 30.4099C103.347 28.4829 104.912 27.4959 106.038 27.4959C106.915 27.4959 107.662 27.9307 107.91 28.5534L103.407 30.4099ZM97.9311 35.2509H100.147V20.5634H97.9311V35.2509ZM94.3045 26.6734H94.2215C93.7237 26.0859 92.7756 25.5572 91.5667 25.5572C89.0423 25.5572 86.7311 27.7544 86.7311 30.5744C86.7311 33.3709 89.0423 35.5564 91.5667 35.5564C92.7637 35.5564 93.7237 35.0277 94.2215 34.4167H94.2926V35.1334C94.2926 37.0487 93.2615 38.0709 91.6023 38.0709C90.2511 38.0709 89.4097 37.1074 89.066 36.2967L87.1341 37.0957C87.6911 38.4234 89.1608 40.0449 91.6023 40.0449C94.1978 40.0449 96.3904 38.5292 96.3904 34.8397V25.8627H94.2926V26.6734H94.3045ZM91.7563 33.5824C90.2274 33.5824 88.9474 32.3134 88.9474 30.5744C88.9474 28.8119 90.2274 27.5312 91.7563 27.5312C93.2615 27.5312 94.4467 28.8237 94.4467 30.5744C94.4586 32.3134 93.2734 33.5824 91.7563 33.5824ZM120.663 20.5634H115.365V35.2509H117.582V29.6814H120.675C123.128 29.6814 125.534 27.9189 125.534 25.1224C125.534 22.3259 123.104 20.5634 120.663 20.5634ZM120.71 27.6369H117.57V22.5962H120.71C122.37 22.5962 123.306 23.9592 123.306 25.1107C123.306 26.2622 122.37 27.6369 120.71 27.6369ZM134.387 25.5337C132.787 25.5337 131.128 26.2387 130.441 27.7779L132.408 28.5887C132.823 27.7779 133.605 27.5077 134.423 27.5077C135.573 27.5077 136.734 28.1892 136.746 29.3994V29.5522C136.343 29.3289 135.49 28.9882 134.435 28.9882C132.313 28.9882 130.168 30.1397 130.168 32.2899C130.168 34.2522 131.899 35.5212 133.842 35.5212C135.324 35.5212 136.153 34.8632 136.663 34.0877H136.734V35.2274H138.867V29.5992C138.879 26.9907 136.912 25.5337 134.387 25.5337ZM134.115 33.5824C133.392 33.5824 132.384 33.2182 132.384 32.3369C132.384 31.2089 133.641 30.7742 134.731 30.7742C135.703 30.7742 136.165 30.9857 136.746 31.2677C136.58 32.6189 135.395 33.5824 134.115 33.5824ZM146.654 25.8509L144.118 32.2194H144.047L141.416 25.8509H139.033L142.98 34.7574L140.728 39.7042H143.039L149.119 25.8509H146.654ZM126.743 35.2509H128.959V20.5634H126.743V35.2509Z" fill="white"/>
<path d="M12.3738 8.85874C12.0301 9.22299 11.8287 9.78699 11.8287 10.5037V36.4947C11.8287 37.2232 12.0301 37.7872 12.3738 38.1397L12.4568 38.222L27.1412 23.6755V23.4992V23.323L12.4568 8.77649L12.3738 8.85874Z" fill="url(#paint0_linear_1_228)"/>
<path d="M32.0344 28.5288L27.1396 23.6761V23.4998V23.3236L32.0344 18.4708L32.1411 18.5296L37.9366 21.7961C39.5959 22.7243 39.5959 24.2518 37.9366 25.1918L32.1411 28.4583L32.0344 28.5288Z" fill="url(#paint1_linear_1_228)"/>
<path d="M32.1401 28.4672L27.1386 23.4969L12.3712 38.1374C12.9164 38.7132 13.8171 38.7837 14.8364 38.2079L32.1401 28.4672Z" fill="url(#paint2_linear_1_228)"/>
<path d="M32.1418 18.5403L14.8262 8.78783C13.807 8.21208 12.9062 8.28258 12.361 8.85833L27.1403 23.4988L32.1418 18.5403Z" fill="url(#paint3_linear_1_228)"/>
<path opacity="0.2" d="M32.0367 28.3522L14.8278 38.0459C13.8678 38.5864 13.0026 38.5512 12.4574 38.0577L12.3745 38.1399L12.4574 38.2222C13.0145 38.7157 13.8678 38.7509 14.8278 38.2104L32.1433 28.4579L32.0367 28.3522Z" fill="black"/>
<path opacity="0.12" d="M12.3738 37.9769C12.0301 37.6127 11.8287 37.0487 11.8287 36.3319V36.5082C11.8287 37.2367 12.0301 37.8007 12.3738 38.1532L12.4568 38.0709L12.3738 37.9769Z" fill="black"/>
<path opacity="0.12" d="M37.9375 25.0244L32.0234 28.3497L32.1301 28.4554L37.9256 25.1889C38.7553 24.7189 39.1701 24.1079 39.1701 23.4969C39.1108 24.0492 38.696 24.6014 37.9375 25.0244Z" fill="black"/>
<path opacity="0.25" d="M14.8256 8.953L37.9367 21.972C38.6834 22.395 39.11 22.9355 39.1811 23.4995C39.1811 22.8885 38.7663 22.2657 37.9367 21.8075L14.8256 8.7885C13.1663 7.86025 11.8152 8.63575 11.8152 10.5157V10.692C11.8152 8.80025 13.1782 8.02475 14.8256 8.953Z" fill="white"/>
<path d="M49.9092 16.7648H49.0321V14.403H49.7314C50.3477 13.8743 50.644 12.9813 50.6321 11.7005V8.22253H55.3847V14.403H56.1788V16.7648H55.3017V15.2725H49.9092V16.7648ZM51.5566 11.7123C51.5684 12.8285 51.3432 13.7215 50.881 14.4148H54.4721V9.09203H51.5566V11.7123Z" fill="white" stroke="white" stroke-width="0.2" stroke-miterlimit="10"/>
<path d="M63.3032 14.3577C62.6039 15.0744 61.7388 15.4269 60.6958 15.4269C59.6528 15.4269 58.7876 15.0744 58.0884 14.3577C57.3891 13.6409 57.0454 12.7714 57.0454 11.7492C57.0454 10.7269 57.3891 9.84566 58.0884 9.14066C58.7876 8.42391 59.6528 8.07141 60.6958 8.07141C61.7269 8.07141 62.5921 8.42391 63.3032 9.14066C64.0025 9.85741 64.358 10.7269 64.358 11.7492C64.358 12.7832 64.0025 13.6527 63.3032 14.3577ZM58.7639 13.7702C59.2854 14.2989 59.9373 14.5574 60.6958 14.5574C61.4543 14.5574 62.1062 14.2989 62.6277 13.7702C63.1491 13.2414 63.4217 12.5717 63.4217 11.7492C63.4217 10.9267 63.161 10.2569 62.6277 9.72816C62.1062 9.19941 61.4662 8.92916 60.6958 8.92916C59.9373 8.92916 59.2854 9.18766 58.7639 9.71641C58.2425 10.2569 57.9817 10.9267 57.9817 11.7492C57.9817 12.5717 58.2425 13.2414 58.7639 13.7702Z" fill="white" stroke="white" stroke-width="0.2" stroke-miterlimit="10"/>
<path d="M68.9565 15.4276C67.9135 15.4276 67.0365 15.0751 66.3253 14.3701C65.6142 13.6651 65.2587 12.7956 65.2587 11.7381C65.2587 10.6923 65.6142 9.81108 66.3253 9.10608C67.0365 8.40108 67.9135 8.04858 68.9565 8.04858C70.0231 8.04858 70.9002 8.43633 71.5639 9.20008L70.9239 9.81108C70.4379 9.21183 69.7861 8.91808 68.9446 8.91808C68.1742 8.91808 67.5105 9.17658 66.9772 9.69358C66.4439 10.2106 66.1831 10.8921 66.1831 11.7263C66.1831 12.5606 66.4439 13.2421 66.9772 13.7591C67.5105 14.2761 68.1624 14.5346 68.9446 14.5346C69.7979 14.5346 70.5209 14.1938 71.1253 13.5123L71.7653 14.1468C71.4453 14.5346 71.0305 14.8401 70.5446 15.0633C70.0587 15.3218 69.5253 15.4276 68.9565 15.4276Z" fill="white" stroke="white" stroke-width="0.2" stroke-miterlimit="10"/>
<path d="M75.4729 15.2725H74.5603V9.09203H72.5692V8.22253H77.4522V9.09203H75.4611V15.2725H75.4729Z" fill="white" stroke="white" stroke-width="0.2" stroke-miterlimit="10"/>
<path d="M83.7343 8.22253L81.0439 14.168C80.6765 15.0023 80.1194 15.4253 79.3846 15.4253C79.1713 15.4253 78.9343 15.3783 78.6735 15.2725L78.9106 14.4383C79.0646 14.5205 79.2187 14.5675 79.3846 14.5675C79.598 14.5675 79.7639 14.5323 79.8824 14.45C80.0009 14.3678 80.1076 14.215 80.2024 14.0035L80.4631 13.4395L78.0691 8.22253H79.1476L80.9017 12.2645H80.9372L82.6557 8.22253H83.7343Z" fill="white" stroke="white" stroke-width="0.2" stroke-miterlimit="10"/>
<path d="M84.7641 15.2725V8.22253H89.9078V15.2725H88.9952V9.09203H85.6767V15.2725H84.7641Z" fill="white" stroke="white" stroke-width="0.2" stroke-miterlimit="10"/>
<path d="M91.5322 15.2725V8.22253H92.4448V11.2423H96.0003V8.22253H96.9129V15.2725H96.0003V12.0883H92.4448V15.2725H91.5322Z" fill="white" stroke="white" stroke-width="0.2" stroke-miterlimit="10"/>
<path d="M104.369 14.3577C103.67 15.0744 102.804 15.4269 101.761 15.4269C100.718 15.4269 99.8532 15.0744 99.154 14.3577C98.4547 13.6409 98.111 12.7714 98.111 11.7492C98.111 10.7269 98.4547 9.84566 99.154 9.14066C99.8532 8.42391 100.718 8.07141 101.761 8.07141C102.792 8.07141 103.658 8.42391 104.369 9.14066C105.068 9.85741 105.424 10.7269 105.424 11.7492C105.412 12.7832 105.068 13.6527 104.369 14.3577ZM99.8295 13.7702C100.351 14.2989 101.003 14.5574 101.761 14.5574C102.52 14.5574 103.172 14.2989 103.693 13.7702C104.215 13.2414 104.487 12.5717 104.487 11.7492C104.487 10.9267 104.227 10.2569 103.693 9.72816C103.16 9.19941 102.52 8.92916 101.761 8.92916C101.003 8.92916 100.351 9.18766 99.8295 9.71641C99.2962 10.2569 99.0354 10.9267 99.0354 11.7492C99.0354 12.5717 99.2962 13.2414 99.8295 13.7702Z" fill="white" stroke="white" stroke-width="0.2" stroke-miterlimit="10"/>
<path d="M109.144 15.2725V8.22253H111.716C112.273 8.22253 112.759 8.41053 113.161 8.76303C113.576 9.13903 113.778 9.59728 113.778 10.1378C113.778 10.4785 113.695 10.7723 113.517 11.019C113.339 11.2775 113.114 11.4655 112.818 11.5948V11.63C113.173 11.7475 113.458 11.9473 113.683 12.241C113.908 12.5348 114.027 12.8638 114.027 13.2398C114.027 13.8155 113.813 14.2973 113.387 14.6733C112.948 15.0845 112.439 15.2725 111.858 15.2725H109.144ZM110.056 11.2423H111.716C112.059 11.2423 112.332 11.1248 112.545 10.9015C112.759 10.6783 112.853 10.4315 112.853 10.1613C112.853 9.89103 112.759 9.64428 112.545 9.42103C112.344 9.19778 112.083 9.08028 111.751 9.08028H110.056V11.2423ZM110.056 14.403H111.893C112.249 14.403 112.533 14.2855 112.747 14.0388C112.96 13.792 113.079 13.5335 113.079 13.2398C113.079 12.946 112.972 12.6875 112.735 12.4525C112.51 12.2175 112.213 12.0883 111.846 12.0883H110.044V14.403H110.056Z" fill="white" stroke="white" stroke-width="0.2" stroke-miterlimit="10"/>
</g>
<defs>
<linearGradient id="paint0_linear_1_228" x1="25.8371" y1="10.2333" x2="6.11848" y2="30.1228" gradientUnits="userSpaceOnUse">
<stop stop-color="#00A0FF"/>
<stop offset="0.00657445" stop-color="#00A1FF"/>
<stop offset="0.2601" stop-color="#00BEFF"/>
<stop offset="0.5122" stop-color="#00D2FF"/>
<stop offset="0.7604" stop-color="#00DFFF"/>
<stop offset="1" stop-color="#00E3FF"/>
</linearGradient>
<linearGradient id="paint1_linear_1_228" x1="40.0988" y1="23.5016" x2="11.421" y2="23.5016" gradientUnits="userSpaceOnUse">
<stop stop-color="#FFE000"/>
<stop offset="0.4087" stop-color="#FFBD00"/>
<stop offset="0.7754" stop-color="#FFA500"/>
<stop offset="1" stop-color="#FF9C00"/>
</linearGradient>
<linearGradient id="paint2_linear_1_228" x1="29.4223" y1="26.195" x2="2.68233" y2="53.1668" gradientUnits="userSpaceOnUse">
<stop stop-color="#FF3A44"/>
<stop offset="1" stop-color="#C31162"/>
</linearGradient>
<linearGradient id="paint3_linear_1_228" x1="8.64808" y1="0.20598" x2="20.5887" y2="12.25" gradientUnits="userSpaceOnUse">
<stop stop-color="#32A071"/>
<stop offset="0.0685" stop-color="#2DA771"/>
<stop offset="0.4762" stop-color="#15CF74"/>
<stop offset="0.8009" stop-color="#06E775"/>
<stop offset="1" stop-color="#00F076"/>
</linearGradient>
<clipPath id="clip0_1_228">
<rect width="160" height="47" fill="white"/>
</clipPath>
</defs>
</svg>
