<svg width="20" height="19" viewBox="0 0 20 19" fill="none" xmlns="http://www.w3.org/2000/svg">
<g clip-path="url(#clip0_310_627)">
<path d="M10.4053 1.11121C11.9322 1.13658 13.4045 1.704 14.5547 2.71863C15.7816 3.80099 16.5504 5.31046 16.7041 6.93933L16.7256 7.245C16.7952 8.74054 16.3382 10.2146 15.4346 11.4139L18.7686 14.7469L18.8271 14.8114C18.8828 14.8791 18.9282 14.9548 18.9619 15.036L18.9912 15.119C19.0166 15.2028 19.0303 15.29 19.0303 15.3778C19.0303 15.4657 19.0166 15.5528 18.9912 15.6366L18.9619 15.7196C18.9171 15.8277 18.8513 15.9259 18.7686 16.0087C18.7064 16.0708 18.6358 16.1236 18.5586 16.1649L18.4795 16.202C18.3713 16.2469 18.2548 16.2694 18.1377 16.2694C18.0498 16.2694 17.9627 16.2567 17.8789 16.2313L17.7959 16.202C17.7149 16.1684 17.6398 16.1227 17.5723 16.0673L17.5068 16.0087L14.1738 12.6747C12.9745 13.5809 11.4991 14.0394 10.002 13.9706L9.69629 13.9491C8.16806 13.8057 6.74501 13.121 5.68066 12.0243L5.47266 11.7997C4.38959 10.5718 3.8155 8.97713 3.86719 7.3407L3.88379 7.03406C4.00483 5.51056 4.66577 4.07568 5.75195 2.99109L5.97266 2.78015C7.10336 1.75342 8.56639 1.1606 10.0996 1.11316L10.4053 1.11121ZM10.3096 2.91882C9.15949 2.92351 8.05438 3.35335 7.20605 4.12195L7.04004 4.28015C6.17266 5.14755 5.68371 6.32302 5.67871 7.54968C5.67378 8.77628 6.15341 9.95557 7.01367 10.83L7.17871 10.9891C7.57301 11.3522 8.0275 11.6448 8.52246 11.8534L8.73633 11.9374C9.24001 12.1209 9.77235 12.2164 10.3096 12.2186L10.5391 12.2137C11.0744 12.1895 11.602 12.0725 12.0986 11.868C12.6662 11.6343 13.1822 11.2903 13.6162 10.8563C14.0503 10.4223 14.3942 9.90633 14.6279 9.33875L14.71 9.12488C14.8638 8.69178 14.9528 8.23831 14.9736 7.77917L14.9785 7.54968C14.9763 7.01248 14.8808 6.4801 14.6973 5.97644L14.6133 5.76257C14.4047 5.26759 14.1121 4.81313 13.749 4.41882L13.5898 4.25378C12.7154 3.3935 11.5362 2.91387 10.3096 2.91882Z" fill="white" stroke="white" stroke-width="0.2"/>
</g>
<defs>
<clipPath id="clip0_310_627">
<rect width="19" height="19" fill="white" transform="translate(0.800537)"/>
</clipPath>
</defs>
</svg>
