<svg width="28" height="28" viewBox="0 0 28 28" fill="none" xmlns="http://www.w3.org/2000/svg">
<g clip-path="url(#clip0_1_1543)">
<path d="M13.9999 2.33691C17.1698 2.33691 17.5653 2.34858 18.8089 2.40691C20.0514 2.46525 20.8973 2.66008 21.6416 2.94941C22.4116 3.24575 23.0603 3.64708 23.7089 4.29458C24.3022 4.87779 24.7612 5.58327 25.0541 6.36191C25.3423 7.10508 25.5383 7.95208 25.5966 9.19458C25.6514 10.4382 25.6666 10.8337 25.6666 14.0036C25.6666 17.1734 25.6549 17.5689 25.5966 18.8126C25.5383 20.0551 25.3423 20.9009 25.0541 21.6452C24.762 22.4243 24.3029 23.13 23.7089 23.7126C23.1255 24.3056 22.4201 24.7646 21.6416 25.0577C20.8984 25.3459 20.0514 25.5419 18.8089 25.6003C17.5653 25.6551 17.1698 25.6702 13.9999 25.6702C10.8301 25.6702 10.4346 25.6586 9.19092 25.6003C7.94842 25.5419 7.10259 25.3459 6.35825 25.0577C5.5793 24.7655 4.8737 24.3064 4.29092 23.7126C3.69756 23.1295 3.23851 22.424 2.94575 21.6452C2.65642 20.9021 2.46159 20.0551 2.40325 18.8126C2.34842 17.5689 2.33325 17.1734 2.33325 14.0036C2.33325 10.8337 2.34492 10.4382 2.40325 9.19458C2.46159 7.95091 2.65642 7.10625 2.94575 6.36191C3.23769 5.58279 3.69686 4.87712 4.29092 4.29458C4.87387 3.70102 5.57942 3.24193 6.35825 2.94941C7.10259 2.66008 7.94725 2.46525 9.19092 2.40691C10.4346 2.35208 10.8301 2.33691 13.9999 2.33691ZM13.9999 8.17025C12.4528 8.17025 10.9691 8.78483 9.87513 9.87879C8.78117 10.9728 8.16659 12.4565 8.16659 14.0036C8.16659 15.5507 8.78117 17.0344 9.87513 18.1284C10.9691 19.2223 12.4528 19.8369 13.9999 19.8369C15.547 19.8369 17.0307 19.2223 18.1247 18.1284C19.2187 17.0344 19.8333 15.5507 19.8333 14.0036C19.8333 12.4565 19.2187 10.9728 18.1247 9.87879C17.0307 8.78483 15.547 8.17025 13.9999 8.17025ZM21.5833 7.87858C21.5833 7.49181 21.4296 7.12087 21.1561 6.84738C20.8826 6.57389 20.5117 6.42025 20.1249 6.42025C19.7381 6.42025 19.3672 6.57389 19.0937 6.84738C18.8202 7.12087 18.6666 7.49181 18.6666 7.87858C18.6666 8.26536 18.8202 8.63629 19.0937 8.90978C19.3672 9.18327 19.7381 9.33691 20.1249 9.33691C20.5117 9.33691 20.8826 9.18327 21.1561 8.90978C21.4296 8.63629 21.5833 8.26536 21.5833 7.87858ZM13.9999 10.5036C14.9282 10.5036 15.8184 10.8723 16.4748 11.5287C17.1312 12.1851 17.4999 13.0753 17.4999 14.0036C17.4999 14.9318 17.1312 15.8221 16.4748 16.4785C15.8184 17.1348 14.9282 17.5036 13.9999 17.5036C13.0717 17.5036 12.1814 17.1348 11.525 16.4785C10.8687 15.8221 10.4999 14.9318 10.4999 14.0036C10.4999 13.0753 10.8687 12.1851 11.525 11.5287C12.1814 10.8723 13.0717 10.5036 13.9999 10.5036Z" fill="#888888"/>
</g>
<defs>
<clipPath id="clip0_1_1543">
<rect width="28" height="28" fill="white" transform="translate(0 0.00341797)"/>
</clipPath>
</defs>
</svg>
