<svg width="28" height="28" viewBox="0 0 28 28" fill="none" xmlns="http://www.w3.org/2000/svg">
<g clip-path="url(#clip0_1_1540)">
<path d="M25.8556 6.602C24.9649 6.99598 24.0204 7.25472 23.0533 7.36967C24.0726 6.76 24.8356 5.80052 25.1999 4.67C24.2433 5.23933 23.1944 5.63833 22.1013 5.85417C21.367 5.06851 20.3937 4.54746 19.3327 4.37201C18.2717 4.19657 17.1825 4.37657 16.2344 4.88403C15.2863 5.39148 14.5324 6.19796 14.0899 7.17809C13.6474 8.15822 13.5411 9.25708 13.7876 10.3038C11.8476 10.2066 9.94966 9.70244 8.21711 8.82411C6.48455 7.94577 4.95609 6.71289 3.73094 5.2055C3.29728 5.95036 3.06939 6.7971 3.07061 7.659C3.07061 9.35067 3.93161 10.8452 5.24061 11.7202C4.46595 11.6958 3.70834 11.4866 3.03094 11.11V11.1707C3.03117 12.2973 3.42104 13.3892 4.13443 14.2612C4.84782 15.1333 5.84083 15.7317 6.94511 15.9552C6.22599 16.15 5.47196 16.1788 4.74011 16.0392C5.05145 17.0089 5.65828 17.8571 6.47563 18.4648C7.29298 19.0725 8.27992 19.4094 9.29827 19.4283C8.28617 20.2232 7.12731 20.8108 5.88797 21.1575C4.64862 21.5043 3.35309 21.6033 2.07544 21.449C4.30575 22.8833 6.90205 23.6448 9.55377 23.6423C18.5289 23.6423 23.4371 16.2072 23.4371 9.759C23.4371 9.549 23.4313 9.33667 23.4219 9.129C24.3773 8.43853 25.2018 7.58319 25.8568 6.60317L25.8556 6.602Z" fill="#888888"/>
</g>
<defs>
<clipPath id="clip0_1_1540">
<rect width="28" height="28" fill="white" transform="translate(0 0.00341797)"/>
</clipPath>
</defs>
</svg>
