<svg width="102" height="12" viewBox="0 0 102 12" fill="none" xmlns="http://www.w3.org/2000/svg">
<path d="M3.612 0.48H4.524L8.004 9H6.852L5.844 6.504H2.268L1.272 9H0.12L3.612 0.48ZM5.604 5.664L4.068 1.728L2.484 5.664H5.604ZM8.99709 0.24H10.0531V7.38C10.0531 7.724 10.1011 7.936 10.1971 8.016C10.2931 8.096 10.4091 8.136 10.5451 8.136C10.7131 8.136 10.8731 8.12 11.0251 8.088C11.1771 8.048 11.3051 8.008 11.4091 7.968L11.5771 8.832C11.4011 8.904 11.1931 8.964 10.9531 9.012C10.7131 9.06 10.5011 9.084 10.3171 9.084C9.90909 9.084 9.58509 8.968 9.34509 8.736C9.11309 8.504 8.99709 8.18 8.99709 7.764V0.24ZM12.4307 0.24H13.4867V7.38C13.4867 7.724 13.5347 7.936 13.6307 8.016C13.7267 8.096 13.8427 8.136 13.9787 8.136C14.1467 8.136 14.3067 8.12 14.4587 8.088C14.6107 8.048 14.7387 8.008 14.8427 7.968L15.0107 8.832C14.8347 8.904 14.6267 8.964 14.3867 9.012C14.1467 9.06 13.9347 9.084 13.7507 9.084C13.3427 9.084 13.0187 8.968 12.7787 8.736C12.5467 8.504 12.4307 8.18 12.4307 7.764V0.24ZM21.8242 3.66C21.2962 3.668 20.8282 3.804 20.4202 4.068C20.0202 4.324 19.7362 4.68 19.5682 5.136V9H18.5122V2.736H19.4962V4.188C19.7122 3.756 19.9962 3.408 20.3482 3.144C20.7082 2.872 21.0842 2.72 21.4762 2.688C21.5562 2.688 21.6242 2.688 21.6802 2.688C21.7362 2.688 21.7842 2.692 21.8242 2.7V3.66ZM22.8715 1.56V0.24H23.9275V1.56H22.8715ZM22.8715 9V2.736H23.9275V9H22.8715ZM28.1332 9.072C27.5652 9.072 27.0612 8.924 26.6212 8.628C26.1892 8.324 25.8492 7.928 25.6012 7.44C25.3612 6.952 25.2412 6.432 25.2412 5.88C25.2412 5.288 25.3612 4.748 25.6012 4.26C25.8492 3.764 26.1932 3.368 26.6332 3.072C27.0732 2.776 27.5772 2.628 28.1452 2.628C28.6652 2.628 29.1172 2.756 29.5012 3.012C29.8932 3.268 30.2212 3.592 30.4852 3.984V2.736H31.4212V8.928C31.4212 9.52 31.2772 10.02 30.9892 10.428C30.7092 10.836 30.3252 11.144 29.8372 11.352C29.3572 11.568 28.8212 11.676 28.2292 11.676C27.5252 11.676 26.9492 11.552 26.5012 11.304C26.0532 11.056 25.6812 10.72 25.3852 10.296L25.9972 9.756C26.2452 10.124 26.5652 10.4 26.9572 10.584C27.3572 10.768 27.7812 10.86 28.2292 10.86C28.6132 10.86 28.9652 10.788 29.2852 10.644C29.6132 10.508 29.8732 10.296 30.0652 10.008C30.2652 9.72 30.3652 9.36 30.3652 8.928V7.824C30.1332 8.208 29.8132 8.512 29.4052 8.736C29.0052 8.96 28.5812 9.072 28.1332 9.072ZM28.4572 8.208C28.7532 8.208 29.0372 8.14 29.3092 8.004C29.5812 7.868 29.8092 7.692 29.9932 7.476C30.1852 7.26 30.3092 7.036 30.3652 6.804V5.004C30.1972 4.58 29.9252 4.232 29.5492 3.96C29.1732 3.68 28.7772 3.54 28.3612 3.54C27.9372 3.54 27.5692 3.656 27.2572 3.888C26.9532 4.12 26.7172 4.416 26.5492 4.776C26.3892 5.136 26.3092 5.512 26.3092 5.904C26.3092 6.32 26.4052 6.704 26.5972 7.056C26.7892 7.4 27.0452 7.68 27.3652 7.896C27.6932 8.104 28.0572 8.208 28.4572 8.208ZM38.5614 9H37.5054V5.496C37.5054 4.856 37.3894 4.376 37.1574 4.056C36.9334 3.736 36.6094 3.576 36.1854 3.576C35.9134 3.576 35.6374 3.648 35.3574 3.792C35.0854 3.936 34.8454 4.132 34.6374 4.38C34.4294 4.62 34.2774 4.9 34.1814 5.22V9H33.1254V0.24H34.1814V4.08C34.4294 3.632 34.7654 3.28 35.1894 3.024C35.6214 2.76 36.0854 2.628 36.5814 2.628C37.0774 2.628 37.4694 2.744 37.7574 2.976C38.0454 3.208 38.2494 3.524 38.3694 3.924C38.4974 4.316 38.5614 4.76 38.5614 5.256V9ZM43.385 8.688C43.257 8.744 43.053 8.824 42.773 8.928C42.501 9.032 42.197 9.084 41.861 9.084C41.477 9.084 41.145 8.98 40.865 8.772C40.585 8.556 40.445 8.224 40.445 7.776V3.564H39.593V2.736H40.445V0.648H41.501V2.736H42.905V3.564H41.501V7.452C41.517 7.676 41.593 7.844 41.729 7.956C41.865 8.06 42.025 8.112 42.209 8.112C42.417 8.112 42.609 8.076 42.785 8.004C42.961 7.932 43.077 7.88 43.133 7.848L43.385 8.688ZM46.5117 9.12C45.9917 9.12 45.5037 9.036 45.0477 8.868C44.5917 8.692 44.1997 8.432 43.8717 8.088L44.2797 7.344C44.6397 7.68 44.9997 7.92 45.3597 8.064C45.7197 8.208 46.0877 8.28 46.4637 8.28C46.8957 8.28 47.2477 8.2 47.5197 8.04C47.7917 7.872 47.9277 7.628 47.9277 7.308C47.9277 7.076 47.8557 6.904 47.7117 6.792C47.5757 6.68 47.3797 6.588 47.1237 6.516C46.8677 6.436 46.5637 6.348 46.2117 6.252C45.5637 6.068 45.0677 5.852 44.7237 5.604C44.3877 5.348 44.2197 4.976 44.2197 4.488C44.2197 3.896 44.4437 3.44 44.8917 3.12C45.3477 2.792 45.9277 2.628 46.6317 2.628C47.5757 2.628 48.3197 2.912 48.8637 3.48L48.3837 4.212C47.8957 3.708 47.2917 3.456 46.5717 3.456C46.3557 3.456 46.1437 3.484 45.9357 3.54C45.7277 3.588 45.5557 3.68 45.4197 3.816C45.2837 3.944 45.2157 4.128 45.2157 4.368C45.2157 4.664 45.3357 4.876 45.5757 5.004C45.8157 5.132 46.1677 5.264 46.6317 5.4C47.1037 5.536 47.5117 5.672 47.8557 5.808C48.2077 5.944 48.4797 6.12 48.6717 6.336C48.8637 6.552 48.9597 6.852 48.9597 7.236C48.9597 7.828 48.7357 8.292 48.2877 8.628C47.8397 8.956 47.2477 9.12 46.5117 9.12ZM56.5703 3.66C56.0423 3.668 55.5743 3.804 55.1663 4.068C54.7663 4.324 54.4823 4.68 54.3143 5.136V9H53.2583V2.736H54.2423V4.188C54.4583 3.756 54.7423 3.408 55.0943 3.144C55.4543 2.872 55.8303 2.72 56.2223 2.688C56.3023 2.688 56.3703 2.688 56.4263 2.688C56.4823 2.688 56.5303 2.692 56.5703 2.7V3.66ZM60.249 9.12C59.625 9.12 59.073 8.972 58.593 8.676C58.113 8.38 57.737 7.984 57.465 7.488C57.193 6.992 57.057 6.452 57.057 5.868C57.057 5.276 57.193 4.736 57.465 4.248C57.737 3.76 58.113 3.368 58.593 3.072C59.081 2.776 59.637 2.628 60.261 2.628C60.893 2.628 61.441 2.78 61.905 3.084C62.377 3.38 62.741 3.772 62.997 4.26C63.261 4.74 63.393 5.26 63.393 5.82C63.393 5.996 63.385 6.132 63.369 6.228H58.173C58.205 6.636 58.317 7 58.509 7.32C58.709 7.632 58.965 7.88 59.277 8.064C59.589 8.24 59.925 8.328 60.285 8.328C60.669 8.328 61.029 8.232 61.365 8.04C61.709 7.848 61.945 7.596 62.073 7.284L62.985 7.536C62.785 8 62.437 8.38 61.941 8.676C61.445 8.972 60.881 9.12 60.249 9.12ZM58.137 5.496H62.409C62.377 5.088 62.261 4.728 62.061 4.416C61.861 4.104 61.605 3.86 61.293 3.684C60.981 3.508 60.637 3.42 60.261 3.42C59.893 3.42 59.553 3.508 59.241 3.684C58.929 3.86 58.673 4.104 58.473 4.416C58.281 4.728 58.169 5.088 58.137 5.496ZM66.7148 9.12C66.1948 9.12 65.7068 9.036 65.2508 8.868C64.7948 8.692 64.4028 8.432 64.0748 8.088L64.4828 7.344C64.8428 7.68 65.2028 7.92 65.5628 8.064C65.9228 8.208 66.2908 8.28 66.6668 8.28C67.0988 8.28 67.4508 8.2 67.7228 8.04C67.9948 7.872 68.1308 7.628 68.1308 7.308C68.1308 7.076 68.0588 6.904 67.9148 6.792C67.7788 6.68 67.5828 6.588 67.3268 6.516C67.0708 6.436 66.7668 6.348 66.4148 6.252C65.7668 6.068 65.2708 5.852 64.9268 5.604C64.5908 5.348 64.4228 4.976 64.4228 4.488C64.4228 3.896 64.6468 3.44 65.0948 3.12C65.5508 2.792 66.1308 2.628 66.8348 2.628C67.7788 2.628 68.5228 2.912 69.0668 3.48L68.5868 4.212C68.0988 3.708 67.4948 3.456 66.7748 3.456C66.5588 3.456 66.3468 3.484 66.1388 3.54C65.9308 3.588 65.7588 3.68 65.6228 3.816C65.4868 3.944 65.4188 4.128 65.4188 4.368C65.4188 4.664 65.5388 4.876 65.7788 5.004C66.0188 5.132 66.3708 5.264 66.8348 5.4C67.3068 5.536 67.7148 5.672 68.0588 5.808C68.4108 5.944 68.6828 6.12 68.8748 6.336C69.0668 6.552 69.1628 6.852 69.1628 7.236C69.1628 7.828 68.9388 8.292 68.4908 8.628C68.0428 8.956 67.4508 9.12 66.7148 9.12ZM73.1982 9.12C72.5742 9.12 72.0222 8.972 71.5422 8.676C71.0622 8.38 70.6862 7.984 70.4142 7.488C70.1422 6.992 70.0062 6.452 70.0062 5.868C70.0062 5.276 70.1422 4.736 70.4142 4.248C70.6862 3.76 71.0622 3.368 71.5422 3.072C72.0302 2.776 72.5862 2.628 73.2102 2.628C73.8422 2.628 74.3902 2.78 74.8542 3.084C75.3262 3.38 75.6902 3.772 75.9462 4.26C76.2102 4.74 76.3422 5.26 76.3422 5.82C76.3422 5.996 76.3342 6.132 76.3182 6.228H71.1222C71.1542 6.636 71.2662 7 71.4582 7.32C71.6582 7.632 71.9142 7.88 72.2262 8.064C72.5382 8.24 72.8742 8.328 73.2342 8.328C73.6182 8.328 73.9782 8.232 74.3142 8.04C74.6582 7.848 74.8942 7.596 75.0222 7.284L75.9342 7.536C75.7342 8 75.3862 8.38 74.8902 8.676C74.3942 8.972 73.8302 9.12 73.1982 9.12ZM71.0862 5.496H75.3582C75.3262 5.088 75.2102 4.728 75.0102 4.416C74.8102 4.104 74.5542 3.86 74.2422 3.684C73.9302 3.508 73.5862 3.42 73.2102 3.42C72.8422 3.42 72.5022 3.508 72.1902 3.684C71.8782 3.86 71.6222 4.104 71.4222 4.416C71.2302 4.728 71.1182 5.088 71.0862 5.496ZM80.8281 3.66C80.3001 3.668 79.8321 3.804 79.4241 4.068C79.0241 4.324 78.7401 4.68 78.5721 5.136V9H77.5161V2.736H78.5001V4.188C78.7161 3.756 79.0001 3.408 79.3521 3.144C79.7121 2.872 80.0881 2.72 80.4801 2.688C80.5601 2.688 80.6281 2.688 80.6841 2.688C80.7401 2.688 80.7881 2.692 80.8281 2.7V3.66ZM83.6754 9L81.2154 2.736H82.3194L84.2874 7.992L86.2554 2.736H87.2874L84.8274 9H83.6754ZM90.9053 9.12C90.2813 9.12 89.7293 8.972 89.2493 8.676C88.7693 8.38 88.3933 7.984 88.1213 7.488C87.8493 6.992 87.7133 6.452 87.7133 5.868C87.7133 5.276 87.8493 4.736 88.1213 4.248C88.3933 3.76 88.7693 3.368 89.2493 3.072C89.7373 2.776 90.2933 2.628 90.9173 2.628C91.5493 2.628 92.0973 2.78 92.5613 3.084C93.0333 3.38 93.3973 3.772 93.6533 4.26C93.9173 4.74 94.0493 5.26 94.0493 5.82C94.0493 5.996 94.0413 6.132 94.0253 6.228H88.8293C88.8613 6.636 88.9733 7 89.1653 7.32C89.3653 7.632 89.6213 7.88 89.9333 8.064C90.2453 8.24 90.5813 8.328 90.9413 8.328C91.3253 8.328 91.6853 8.232 92.0213 8.04C92.3653 7.848 92.6013 7.596 92.7293 7.284L93.6413 7.536C93.4413 8 93.0933 8.38 92.5973 8.676C92.1013 8.972 91.5373 9.12 90.9053 9.12ZM88.7933 5.496H93.0653C93.0333 5.088 92.9173 4.728 92.7173 4.416C92.5173 4.104 92.2613 3.86 91.9493 3.684C91.6373 3.508 91.2933 3.42 90.9173 3.42C90.5493 3.42 90.2093 3.508 89.8973 3.684C89.5853 3.86 89.3293 4.104 89.1293 4.416C88.9373 4.728 88.8253 5.088 88.7933 5.496ZM94.8151 5.88C94.8151 5.288 94.9351 4.748 95.1751 4.26C95.4231 3.764 95.7591 3.368 96.1831 3.072C96.6151 2.776 97.1071 2.628 97.6591 2.628C98.1631 2.628 98.6151 2.76 99.0151 3.024C99.4151 3.288 99.7271 3.608 99.9511 3.984V0.24H101.007V7.8C101.007 8.048 101.119 8.176 101.343 8.184V9C101.143 9.032 100.987 9.048 100.875 9.048C100.667 9.048 100.483 8.976 100.323 8.832C100.171 8.688 100.095 8.528 100.095 8.352V7.824C99.8471 8.224 99.5151 8.54 99.0991 8.772C98.6831 9.004 98.2511 9.12 97.8031 9.12C97.2271 9.12 96.7111 8.972 96.2551 8.676C95.8071 8.372 95.4551 7.976 95.1991 7.488C94.9431 6.992 94.8151 6.456 94.8151 5.88ZM99.9511 6.804V5.004C99.8551 4.732 99.6991 4.488 99.4831 4.272C99.2671 4.048 99.0231 3.872 98.7511 3.744C98.4871 3.608 98.2231 3.54 97.9591 3.54C97.5511 3.54 97.1911 3.652 96.8791 3.876C96.5751 4.1 96.3351 4.392 96.1591 4.752C95.9911 5.112 95.9071 5.492 95.9071 5.892C95.9071 6.308 95.9991 6.692 96.1831 7.044C96.3751 7.396 96.6351 7.68 96.9631 7.896C97.2911 8.104 97.6551 8.208 98.0551 8.208C98.3111 8.208 98.5751 8.148 98.8471 8.028C99.1191 7.9 99.3591 7.728 99.5671 7.512C99.7751 7.296 99.9031 7.06 99.9511 6.804Z" fill="#86928B"/>
</svg>
