<svg width="70" height="10" viewBox="0 0 70 10" fill="none" xmlns="http://www.w3.org/2000/svg">
<path d="M0.02 9V0.48H1.1V9H0.02ZM8.40519 9H7.34919V5.496C7.34919 4.832 7.24519 4.348 7.03719 4.044C6.83719 3.732 6.52919 3.576 6.11319 3.576C5.82519 3.576 5.53719 3.648 5.24919 3.792C4.96919 3.936 4.71719 4.132 4.49319 4.38C4.27719 4.62 4.12119 4.9 4.02519 5.22V9H2.96919V2.736H3.92919V4.08C4.17719 3.64 4.53319 3.288 4.99719 3.024C5.46919 2.76 5.98119 2.628 6.53319 2.628C7.02119 2.628 7.39719 2.744 7.66119 2.976C7.93319 3.2 8.12519 3.512 8.23719 3.912C8.34919 4.304 8.40519 4.752 8.40519 5.256V9ZM14.4633 9L12.2913 5.952L11.1033 7.068V9H10.0473V0.24H11.1033V5.964L14.3433 2.748H15.4833L12.9873 5.34L15.6033 9H14.4633ZM16.4321 9V7.656H17.3201V9H16.4321ZM28.997 0.48V9H27.917V5.124H23.225V9H22.145V0.48H23.225V4.164H27.917V0.48H28.997ZM33.5021 9.12C32.8781 9.12 32.3261 8.972 31.8461 8.676C31.3741 8.372 31.0061 7.976 30.7421 7.488C30.4781 6.992 30.3461 6.456 30.3461 5.88C30.3461 5.296 30.4781 4.76 30.7421 4.272C31.0141 3.776 31.3861 3.38 31.8581 3.084C32.3381 2.78 32.8861 2.628 33.5021 2.628C34.1261 2.628 34.6741 2.78 35.1461 3.084C35.6261 3.38 35.9981 3.776 36.2621 4.272C36.5341 4.76 36.6701 5.296 36.6701 5.88C36.6701 6.456 36.5341 6.992 36.2621 7.488C35.9981 7.976 35.6301 8.372 35.1581 8.676C34.6861 8.972 34.1341 9.12 33.5021 9.12ZM31.4261 5.892C31.4261 6.324 31.5181 6.716 31.7021 7.068C31.8941 7.42 32.1461 7.7 32.4581 7.908C32.7701 8.108 33.1181 8.208 33.5021 8.208C33.8861 8.208 34.2341 8.104 34.5461 7.896C34.8661 7.688 35.1181 7.408 35.3021 7.056C35.4941 6.696 35.5901 6.3 35.5901 5.868C35.5901 5.436 35.4941 5.044 35.3021 4.692C35.1181 4.34 34.8661 4.06 34.5461 3.852C34.2341 3.644 33.8861 3.54 33.5021 3.54C33.1181 3.54 32.7701 3.648 32.4581 3.864C32.1461 4.072 31.8941 4.352 31.7021 4.704C31.5181 5.056 31.4261 5.452 31.4261 5.892ZM37.8897 6.492V2.736H38.9457V6.288C38.9457 7.568 39.3897 8.208 40.2777 8.208C40.7097 8.208 41.1137 8.072 41.4897 7.8C41.8737 7.52 42.1577 7.14 42.3417 6.66V2.736H43.3977V7.8C43.3977 8.048 43.5097 8.176 43.7337 8.184V9C43.6137 9.016 43.5177 9.024 43.4457 9.024C43.3817 9.032 43.3177 9.036 43.2537 9.036C43.0537 9.036 42.8817 8.976 42.7377 8.856C42.5937 8.728 42.5177 8.572 42.5097 8.388L42.4857 7.656C42.2137 8.12 41.8457 8.48 41.3817 8.736C40.9257 8.992 40.4257 9.12 39.8817 9.12C38.5537 9.12 37.8897 8.244 37.8897 6.492ZM47.3047 9.12C46.7847 9.12 46.2967 9.036 45.8407 8.868C45.3847 8.692 44.9927 8.432 44.6647 8.088L45.0727 7.344C45.4327 7.68 45.7927 7.92 46.1527 8.064C46.5127 8.208 46.8807 8.28 47.2567 8.28C47.6887 8.28 48.0407 8.2 48.3127 8.04C48.5847 7.872 48.7207 7.628 48.7207 7.308C48.7207 7.076 48.6487 6.904 48.5047 6.792C48.3687 6.68 48.1727 6.588 47.9167 6.516C47.6607 6.436 47.3567 6.348 47.0047 6.252C46.3567 6.068 45.8607 5.852 45.5167 5.604C45.1807 5.348 45.0127 4.976 45.0127 4.488C45.0127 3.896 45.2367 3.44 45.6847 3.12C46.1407 2.792 46.7207 2.628 47.4247 2.628C48.3687 2.628 49.1127 2.912 49.6567 3.48L49.1767 4.212C48.6887 3.708 48.0847 3.456 47.3647 3.456C47.1487 3.456 46.9367 3.484 46.7287 3.54C46.5207 3.588 46.3487 3.68 46.2127 3.816C46.0767 3.944 46.0087 4.128 46.0087 4.368C46.0087 4.664 46.1287 4.876 46.3687 5.004C46.6087 5.132 46.9607 5.264 47.4247 5.4C47.8967 5.536 48.3047 5.672 48.6487 5.808C49.0007 5.944 49.2727 6.12 49.4647 6.336C49.6567 6.552 49.7527 6.852 49.7527 7.236C49.7527 7.828 49.5287 8.292 49.0807 8.628C48.6327 8.956 48.0407 9.12 47.3047 9.12ZM53.7881 9.12C53.1641 9.12 52.6121 8.972 52.1321 8.676C51.6521 8.38 51.2761 7.984 51.0041 7.488C50.7321 6.992 50.5961 6.452 50.5961 5.868C50.5961 5.276 50.7321 4.736 51.0041 4.248C51.2761 3.76 51.6521 3.368 52.1321 3.072C52.6201 2.776 53.1761 2.628 53.8001 2.628C54.4321 2.628 54.9801 2.78 55.4441 3.084C55.9161 3.38 56.2801 3.772 56.5361 4.26C56.8001 4.74 56.9321 5.26 56.9321 5.82C56.9321 5.996 56.9241 6.132 56.9081 6.228H51.7121C51.7441 6.636 51.8561 7 52.0481 7.32C52.2481 7.632 52.5041 7.88 52.8161 8.064C53.1281 8.24 53.4641 8.328 53.8241 8.328C54.2081 8.328 54.5681 8.232 54.9041 8.04C55.2481 7.848 55.4841 7.596 55.6121 7.284L56.5241 7.536C56.3241 8 55.9761 8.38 55.4801 8.676C54.9841 8.972 54.4201 9.12 53.7881 9.12ZM51.6761 5.496H55.9481C55.9161 5.088 55.8001 4.728 55.6001 4.416C55.4001 4.104 55.1441 3.86 54.8321 3.684C54.5201 3.508 54.1761 3.42 53.8001 3.42C53.4321 3.42 53.0921 3.508 52.7801 3.684C52.4681 3.86 52.2121 4.104 52.0121 4.416C51.8201 4.728 51.7081 5.088 51.6761 5.496ZM65.2931 9.084C64.6531 9.084 64.0611 8.976 63.5171 8.76C62.9811 8.544 62.5131 8.24 62.1131 7.848C61.7131 7.456 61.4011 6.996 61.1771 6.468C60.9611 5.94 60.8531 5.364 60.8531 4.74C60.8531 4.124 60.9611 3.552 61.1771 3.024C61.4011 2.496 61.7131 2.04 62.1131 1.656C62.5131 1.264 62.9811 0.96 63.5171 0.744C64.0611 0.528 64.6531 0.42 65.2931 0.42C65.9331 0.42 66.5251 0.528 67.0691 0.744C67.6131 0.96 68.0851 1.264 68.4851 1.656C68.8851 2.04 69.1971 2.496 69.4211 3.024C69.6451 3.552 69.7571 4.124 69.7571 4.74C69.7571 5.364 69.6451 5.94 69.4211 6.468C69.1971 6.996 68.8851 7.456 68.4851 7.848C68.0851 8.24 67.6131 8.544 67.0691 8.76C66.5251 8.976 65.9331 9.084 65.2931 9.084ZM65.2931 8.568C66.0211 8.568 66.6771 8.408 67.2611 8.088C67.8531 7.76 68.3211 7.312 68.6651 6.744C69.0091 6.168 69.1811 5.504 69.1811 4.752C69.1811 4.216 69.0851 3.72 68.8931 3.264C68.7011 2.8 68.4291 2.396 68.0771 2.052C67.7251 1.7 67.3131 1.428 66.8411 1.236C66.3691 1.044 65.8531 0.948 65.2931 0.948C64.7331 0.948 64.2171 1.044 63.7451 1.236C63.2811 1.428 62.8731 1.696 62.5211 2.04C62.1771 2.384 61.9091 2.788 61.7171 3.252C61.5251 3.708 61.4291 4.204 61.4291 4.74C61.4291 5.276 61.5251 5.78 61.7171 6.252C61.9091 6.716 62.1771 7.12 62.5211 7.464C62.8731 7.808 63.2811 8.08 63.7451 8.28C64.2171 8.472 64.7331 8.568 65.2931 8.568ZM63.4331 2.052H65.7371C66.0571 2.052 66.3371 2.14 66.5771 2.316C66.8251 2.484 67.0171 2.7 67.1531 2.964C67.2971 3.228 67.3691 3.5 67.3691 3.78C67.3691 4.148 67.2611 4.484 67.0451 4.788C66.8371 5.092 66.5611 5.288 66.2171 5.376L67.5251 7.44H66.6491L65.4251 5.496H64.2131V7.44H63.4331V2.052ZM65.7011 4.812C65.9891 4.812 66.2091 4.716 66.3611 4.524C66.5211 4.324 66.6011 4.076 66.6011 3.78C66.6011 3.476 66.5091 3.232 66.3251 3.048C66.1491 2.856 65.9291 2.76 65.6651 2.76H64.2131V4.812H65.7011Z" fill="#86928B"/>
</svg>
