<svg width="176" height="14" viewBox="0 0 176 14" fill="none" xmlns="http://www.w3.org/2000/svg">
<path d="M1.02 11V2.48H2.1V11H1.02ZM9.40519 11H8.34919V7.496C8.34919 6.832 8.24519 6.348 8.03719 6.044C7.83719 5.732 7.52919 5.576 7.11319 5.576C6.82519 5.576 6.53719 5.648 6.24919 5.792C5.96919 5.936 5.71719 6.132 5.49319 6.38C5.27719 6.62 5.12119 6.9 5.02519 7.22V11H3.96919V4.736H4.92919V6.08C5.17719 5.64 5.53319 5.288 5.99719 5.024C6.46919 4.76 6.98119 4.628 7.53319 4.628C8.02119 4.628 8.39719 4.744 8.66119 4.976C8.93319 5.2 9.12519 5.512 9.23719 5.912C9.34919 6.304 9.40519 6.752 9.40519 7.256V11ZM15.4633 11L13.2913 7.952L12.1033 9.068V11H11.0473V2.24H12.1033V7.964L15.3433 4.748H16.4833L13.9873 7.34L16.6033 11H15.4633ZM17.4321 11V9.656H18.3201V11H17.4321ZM29.997 2.48V11H28.917V7.124H24.225V11H23.145V2.48H24.225V6.164H28.917V2.48H29.997ZM34.5021 11.12C33.8781 11.12 33.3261 10.972 32.8461 10.676C32.3741 10.372 32.0061 9.976 31.7421 9.488C31.4781 8.992 31.3461 8.456 31.3461 7.88C31.3461 7.296 31.4781 6.76 31.7421 6.272C32.0141 5.776 32.3861 5.38 32.8581 5.084C33.3381 4.78 33.8861 4.628 34.5021 4.628C35.1261 4.628 35.6741 4.78 36.1461 5.084C36.6261 5.38 36.9981 5.776 37.2621 6.272C37.5341 6.76 37.6701 7.296 37.6701 7.88C37.6701 8.456 37.5341 8.992 37.2621 9.488C36.9981 9.976 36.6301 10.372 36.1581 10.676C35.6861 10.972 35.1341 11.12 34.5021 11.12ZM32.4261 7.892C32.4261 8.324 32.5181 8.716 32.7021 9.068C32.8941 9.42 33.1461 9.7 33.4581 9.908C33.7701 10.108 34.1181 10.208 34.5021 10.208C34.8861 10.208 35.2341 10.104 35.5461 9.896C35.8661 9.688 36.1181 9.408 36.3021 9.056C36.4941 8.696 36.5901 8.3 36.5901 7.868C36.5901 7.436 36.4941 7.044 36.3021 6.692C36.1181 6.34 35.8661 6.06 35.5461 5.852C35.2341 5.644 34.8861 5.54 34.5021 5.54C34.1181 5.54 33.7701 5.648 33.4581 5.864C33.1461 6.072 32.8941 6.352 32.7021 6.704C32.5181 7.056 32.4261 7.452 32.4261 7.892ZM38.8897 8.492V4.736H39.9457V8.288C39.9457 9.568 40.3897 10.208 41.2777 10.208C41.7097 10.208 42.1137 10.072 42.4897 9.8C42.8737 9.52 43.1577 9.14 43.3417 8.66V4.736H44.3977V9.8C44.3977 10.048 44.5097 10.176 44.7337 10.184V11C44.6137 11.016 44.5177 11.024 44.4457 11.024C44.3817 11.032 44.3177 11.036 44.2537 11.036C44.0537 11.036 43.8817 10.976 43.7377 10.856C43.5937 10.728 43.5177 10.572 43.5097 10.388L43.4857 9.656C43.2137 10.12 42.8457 10.48 42.3817 10.736C41.9257 10.992 41.4257 11.12 40.8817 11.12C39.5537 11.12 38.8897 10.244 38.8897 8.492ZM48.3047 11.12C47.7847 11.12 47.2967 11.036 46.8407 10.868C46.3847 10.692 45.9927 10.432 45.6647 10.088L46.0727 9.344C46.4327 9.68 46.7927 9.92 47.1527 10.064C47.5127 10.208 47.8807 10.28 48.2567 10.28C48.6887 10.28 49.0407 10.2 49.3127 10.04C49.5847 9.872 49.7207 9.628 49.7207 9.308C49.7207 9.076 49.6487 8.904 49.5047 8.792C49.3687 8.68 49.1727 8.588 48.9167 8.516C48.6607 8.436 48.3567 8.348 48.0047 8.252C47.3567 8.068 46.8607 7.852 46.5167 7.604C46.1807 7.348 46.0127 6.976 46.0127 6.488C46.0127 5.896 46.2367 5.44 46.6847 5.12C47.1407 4.792 47.7207 4.628 48.4247 4.628C49.3687 4.628 50.1127 4.912 50.6567 5.48L50.1767 6.212C49.6887 5.708 49.0847 5.456 48.3647 5.456C48.1487 5.456 47.9367 5.484 47.7287 5.54C47.5207 5.588 47.3487 5.68 47.2127 5.816C47.0767 5.944 47.0087 6.128 47.0087 6.368C47.0087 6.664 47.1287 6.876 47.3687 7.004C47.6087 7.132 47.9607 7.264 48.4247 7.4C48.8967 7.536 49.3047 7.672 49.6487 7.808C50.0007 7.944 50.2727 8.12 50.4647 8.336C50.6567 8.552 50.7527 8.852 50.7527 9.236C50.7527 9.828 50.5287 10.292 50.0807 10.628C49.6327 10.956 49.0407 11.12 48.3047 11.12ZM54.7881 11.12C54.1641 11.12 53.6121 10.972 53.1321 10.676C52.6521 10.38 52.2761 9.984 52.0041 9.488C51.7321 8.992 51.5961 8.452 51.5961 7.868C51.5961 7.276 51.7321 6.736 52.0041 6.248C52.2761 5.76 52.6521 5.368 53.1321 5.072C53.6201 4.776 54.1761 4.628 54.8001 4.628C55.4321 4.628 55.9801 4.78 56.4441 5.084C56.9161 5.38 57.2801 5.772 57.5361 6.26C57.8001 6.74 57.9321 7.26 57.9321 7.82C57.9321 7.996 57.9241 8.132 57.9081 8.228H52.7121C52.7441 8.636 52.8561 9 53.0481 9.32C53.2481 9.632 53.5041 9.88 53.8161 10.064C54.1281 10.24 54.4641 10.328 54.8241 10.328C55.2081 10.328 55.5681 10.232 55.9041 10.04C56.2481 9.848 56.4841 9.596 56.6121 9.284L57.5241 9.536C57.3241 10 56.9761 10.38 56.4801 10.676C55.9841 10.972 55.4201 11.12 54.7881 11.12ZM52.6761 7.496H56.9481C56.9161 7.088 56.8001 6.728 56.6001 6.416C56.4001 6.104 56.1441 5.86 55.8321 5.684C55.5201 5.508 55.1761 5.42 54.8001 5.42C54.4321 5.42 54.0921 5.508 53.7801 5.684C53.4681 5.86 53.2121 6.104 53.0121 6.416C52.8201 6.728 52.7081 7.088 52.6761 7.496ZM66.2931 11.084C65.6531 11.084 65.0611 10.976 64.5171 10.76C63.9811 10.544 63.5131 10.24 63.1131 9.848C62.7131 9.456 62.4011 8.996 62.1771 8.468C61.9611 7.94 61.8531 7.364 61.8531 6.74C61.8531 6.124 61.9611 5.552 62.1771 5.024C62.4011 4.496 62.7131 4.04 63.1131 3.656C63.5131 3.264 63.9811 2.96 64.5171 2.744C65.0611 2.528 65.6531 2.42 66.2931 2.42C66.9331 2.42 67.5251 2.528 68.0691 2.744C68.6131 2.96 69.0851 3.264 69.4851 3.656C69.8851 4.04 70.1971 4.496 70.4211 5.024C70.6451 5.552 70.7571 6.124 70.7571 6.74C70.7571 7.364 70.6451 7.94 70.4211 8.468C70.1971 8.996 69.8851 9.456 69.4851 9.848C69.0851 10.24 68.6131 10.544 68.0691 10.76C67.5251 10.976 66.9331 11.084 66.2931 11.084ZM66.2931 10.568C67.0211 10.568 67.6771 10.408 68.2611 10.088C68.8531 9.76 69.3211 9.312 69.6651 8.744C70.0091 8.168 70.1811 7.504 70.1811 6.752C70.1811 6.216 70.0851 5.72 69.8931 5.264C69.7011 4.8 69.4291 4.396 69.0771 4.052C68.7251 3.7 68.3131 3.428 67.8411 3.236C67.3691 3.044 66.8531 2.948 66.2931 2.948C65.7331 2.948 65.2171 3.044 64.7451 3.236C64.2811 3.428 63.8731 3.696 63.5211 4.04C63.1771 4.384 62.9091 4.788 62.7171 5.252C62.5251 5.708 62.4291 6.204 62.4291 6.74C62.4291 7.276 62.5251 7.78 62.7171 8.252C62.9091 8.716 63.1771 9.12 63.5211 9.464C63.8731 9.808 64.2811 10.08 64.7451 10.28C65.2171 10.472 65.7331 10.568 66.2931 10.568ZM64.4331 4.052H66.7371C67.0571 4.052 67.3371 4.14 67.5771 4.316C67.8251 4.484 68.0171 4.7 68.1531 4.964C68.2971 5.228 68.3691 5.5 68.3691 5.78C68.3691 6.148 68.2611 6.484 68.0451 6.788C67.8371 7.092 67.5611 7.288 67.2171 7.376L68.5251 9.44H67.6491L66.4251 7.496H65.2131V9.44H64.4331V4.052ZM66.7011 6.812C66.9891 6.812 67.2091 6.716 67.3611 6.524C67.5211 6.324 67.6011 6.076 67.6011 5.78C67.6011 5.476 67.5091 5.232 67.3251 5.048C67.1491 4.856 66.9291 4.76 66.6651 4.76H65.2131V6.812H66.7011ZM77.5925 2.48H78.5045L81.9845 11H80.8325L79.8245 8.504H76.2485L75.2525 11H74.1005L77.5925 2.48ZM79.5845 7.664L78.0485 3.728L76.4645 7.664H79.5845ZM82.9776 2.24H84.0336V9.38C84.0336 9.724 84.0816 9.936 84.1776 10.016C84.2736 10.096 84.3896 10.136 84.5256 10.136C84.6936 10.136 84.8536 10.12 85.0056 10.088C85.1576 10.048 85.2856 10.008 85.3896 9.968L85.5576 10.832C85.3816 10.904 85.1736 10.964 84.9336 11.012C84.6936 11.06 84.4816 11.084 84.2976 11.084C83.8896 11.084 83.5656 10.968 83.3256 10.736C83.0936 10.504 82.9776 10.18 82.9776 9.764V2.24ZM86.4112 2.24H87.4672V9.38C87.4672 9.724 87.5152 9.936 87.6112 10.016C87.7072 10.096 87.8232 10.136 87.9592 10.136C88.1272 10.136 88.2872 10.12 88.4392 10.088C88.5912 10.048 88.7192 10.008 88.8232 9.968L88.9912 10.832C88.8152 10.904 88.6072 10.964 88.3672 11.012C88.1272 11.06 87.9152 11.084 87.7312 11.084C87.3232 11.084 86.9992 10.968 86.7592 10.736C86.5272 10.504 86.4112 10.18 86.4112 9.764V2.24ZM95.8046 5.66C95.2766 5.668 94.8086 5.804 94.4006 6.068C94.0006 6.324 93.7166 6.68 93.5486 7.136V11H92.4926V4.736H93.4766V6.188C93.6926 5.756 93.9766 5.408 94.3286 5.144C94.6886 4.872 95.0646 4.72 95.4566 4.688C95.5366 4.688 95.6046 4.688 95.6606 4.688C95.7166 4.688 95.7646 4.692 95.8046 4.7V5.66ZM96.852 3.56V2.24H97.908V3.56H96.852ZM96.852 11V4.736H97.908V11H96.852ZM102.114 11.072C101.546 11.072 101.042 10.924 100.602 10.628C100.17 10.324 99.8296 9.928 99.5816 9.44C99.3416 8.952 99.2216 8.432 99.2216 7.88C99.2216 7.288 99.3416 6.748 99.5816 6.26C99.8296 5.764 100.174 5.368 100.614 5.072C101.054 4.776 101.558 4.628 102.126 4.628C102.646 4.628 103.098 4.756 103.482 5.012C103.874 5.268 104.202 5.592 104.466 5.984V4.736H105.402V10.928C105.402 11.52 105.258 12.02 104.97 12.428C104.69 12.836 104.306 13.144 103.818 13.352C103.338 13.568 102.802 13.676 102.21 13.676C101.506 13.676 100.93 13.552 100.482 13.304C100.034 13.056 99.6616 12.72 99.3656 12.296L99.9776 11.756C100.226 12.124 100.546 12.4 100.938 12.584C101.338 12.768 101.762 12.86 102.21 12.86C102.594 12.86 102.946 12.788 103.266 12.644C103.594 12.508 103.854 12.296 104.046 12.008C104.246 11.72 104.346 11.36 104.346 10.928V9.824C104.114 10.208 103.794 10.512 103.386 10.736C102.986 10.96 102.562 11.072 102.114 11.072ZM102.438 10.208C102.734 10.208 103.018 10.14 103.29 10.004C103.562 9.868 103.79 9.692 103.974 9.476C104.166 9.26 104.29 9.036 104.346 8.804V7.004C104.178 6.58 103.906 6.232 103.53 5.96C103.154 5.68 102.758 5.54 102.342 5.54C101.918 5.54 101.55 5.656 101.238 5.888C100.934 6.12 100.698 6.416 100.53 6.776C100.37 7.136 100.29 7.512 100.29 7.904C100.29 8.32 100.386 8.704 100.578 9.056C100.77 9.4 101.026 9.68 101.346 9.896C101.674 10.104 102.038 10.208 102.438 10.208ZM112.542 11H111.486V7.496C111.486 6.856 111.37 6.376 111.138 6.056C110.914 5.736 110.59 5.576 110.166 5.576C109.894 5.576 109.618 5.648 109.338 5.792C109.066 5.936 108.826 6.132 108.618 6.38C108.41 6.62 108.258 6.9 108.162 7.22V11H107.106V2.24H108.162V6.08C108.41 5.632 108.746 5.28 109.17 5.024C109.602 4.76 110.066 4.628 110.562 4.628C111.058 4.628 111.45 4.744 111.738 4.976C112.026 5.208 112.23 5.524 112.35 5.924C112.478 6.316 112.542 6.76 112.542 7.256V11ZM117.365 10.688C117.237 10.744 117.033 10.824 116.753 10.928C116.481 11.032 116.177 11.084 115.841 11.084C115.457 11.084 115.125 10.98 114.845 10.772C114.565 10.556 114.425 10.224 114.425 9.776V5.564H113.573V4.736H114.425V2.648H115.481V4.736H116.885V5.564H115.481V9.452C115.497 9.676 115.573 9.844 115.709 9.956C115.845 10.06 116.005 10.112 116.189 10.112C116.397 10.112 116.589 10.076 116.765 10.004C116.941 9.932 117.057 9.88 117.113 9.848L117.365 10.688ZM120.492 11.12C119.972 11.12 119.484 11.036 119.028 10.868C118.572 10.692 118.18 10.432 117.852 10.088L118.26 9.344C118.62 9.68 118.98 9.92 119.34 10.064C119.7 10.208 120.068 10.28 120.444 10.28C120.876 10.28 121.228 10.2 121.5 10.04C121.772 9.872 121.908 9.628 121.908 9.308C121.908 9.076 121.836 8.904 121.692 8.792C121.556 8.68 121.36 8.588 121.104 8.516C120.848 8.436 120.544 8.348 120.192 8.252C119.544 8.068 119.048 7.852 118.704 7.604C118.368 7.348 118.2 6.976 118.2 6.488C118.2 5.896 118.424 5.44 118.872 5.12C119.328 4.792 119.908 4.628 120.612 4.628C121.556 4.628 122.3 4.912 122.844 5.48L122.364 6.212C121.876 5.708 121.272 5.456 120.552 5.456C120.336 5.456 120.124 5.484 119.916 5.54C119.708 5.588 119.536 5.68 119.4 5.816C119.264 5.944 119.196 6.128 119.196 6.368C119.196 6.664 119.316 6.876 119.556 7.004C119.796 7.132 120.148 7.264 120.612 7.4C121.084 7.536 121.492 7.672 121.836 7.808C122.188 7.944 122.46 8.12 122.652 8.336C122.844 8.552 122.94 8.852 122.94 9.236C122.94 9.828 122.716 10.292 122.268 10.628C121.82 10.956 121.228 11.12 120.492 11.12ZM130.551 5.66C130.023 5.668 129.555 5.804 129.147 6.068C128.747 6.324 128.463 6.68 128.295 7.136V11H127.239V4.736H128.223V6.188C128.439 5.756 128.723 5.408 129.075 5.144C129.435 4.872 129.811 4.72 130.203 4.688C130.283 4.688 130.351 4.688 130.407 4.688C130.463 4.688 130.511 4.692 130.551 4.7V5.66ZM134.229 11.12C133.605 11.12 133.053 10.972 132.573 10.676C132.093 10.38 131.717 9.984 131.445 9.488C131.173 8.992 131.037 8.452 131.037 7.868C131.037 7.276 131.173 6.736 131.445 6.248C131.717 5.76 132.093 5.368 132.573 5.072C133.061 4.776 133.617 4.628 134.241 4.628C134.873 4.628 135.421 4.78 135.885 5.084C136.357 5.38 136.721 5.772 136.977 6.26C137.241 6.74 137.373 7.26 137.373 7.82C137.373 7.996 137.365 8.132 137.349 8.228H132.153C132.185 8.636 132.297 9 132.489 9.32C132.689 9.632 132.945 9.88 133.257 10.064C133.569 10.24 133.905 10.328 134.265 10.328C134.649 10.328 135.009 10.232 135.345 10.04C135.689 9.848 135.925 9.596 136.053 9.284L136.965 9.536C136.765 10 136.417 10.38 135.921 10.676C135.425 10.972 134.861 11.12 134.229 11.12ZM132.117 7.496H136.389C136.357 7.088 136.241 6.728 136.041 6.416C135.841 6.104 135.585 5.86 135.273 5.684C134.961 5.508 134.617 5.42 134.241 5.42C133.873 5.42 133.533 5.508 133.221 5.684C132.909 5.86 132.653 6.104 132.453 6.416C132.261 6.728 132.149 7.088 132.117 7.496ZM140.695 11.12C140.175 11.12 139.687 11.036 139.231 10.868C138.775 10.692 138.383 10.432 138.055 10.088L138.463 9.344C138.823 9.68 139.183 9.92 139.543 10.064C139.903 10.208 140.271 10.28 140.647 10.28C141.079 10.28 141.431 10.2 141.703 10.04C141.975 9.872 142.111 9.628 142.111 9.308C142.111 9.076 142.039 8.904 141.895 8.792C141.759 8.68 141.563 8.588 141.307 8.516C141.051 8.436 140.747 8.348 140.395 8.252C139.747 8.068 139.251 7.852 138.907 7.604C138.571 7.348 138.403 6.976 138.403 6.488C138.403 5.896 138.627 5.44 139.075 5.12C139.531 4.792 140.111 4.628 140.815 4.628C141.759 4.628 142.503 4.912 143.047 5.48L142.567 6.212C142.079 5.708 141.475 5.456 140.755 5.456C140.539 5.456 140.327 5.484 140.119 5.54C139.911 5.588 139.739 5.68 139.603 5.816C139.467 5.944 139.399 6.128 139.399 6.368C139.399 6.664 139.519 6.876 139.759 7.004C139.999 7.132 140.351 7.264 140.815 7.4C141.287 7.536 141.695 7.672 142.039 7.808C142.391 7.944 142.663 8.12 142.855 8.336C143.047 8.552 143.143 8.852 143.143 9.236C143.143 9.828 142.919 10.292 142.471 10.628C142.023 10.956 141.431 11.12 140.695 11.12ZM147.179 11.12C146.555 11.12 146.003 10.972 145.523 10.676C145.043 10.38 144.667 9.984 144.395 9.488C144.123 8.992 143.987 8.452 143.987 7.868C143.987 7.276 144.123 6.736 144.395 6.248C144.667 5.76 145.043 5.368 145.523 5.072C146.011 4.776 146.567 4.628 147.191 4.628C147.823 4.628 148.371 4.78 148.835 5.084C149.307 5.38 149.671 5.772 149.927 6.26C150.191 6.74 150.323 7.26 150.323 7.82C150.323 7.996 150.315 8.132 150.299 8.228H145.103C145.135 8.636 145.247 9 145.439 9.32C145.639 9.632 145.895 9.88 146.207 10.064C146.519 10.24 146.855 10.328 147.215 10.328C147.599 10.328 147.959 10.232 148.295 10.04C148.639 9.848 148.875 9.596 149.003 9.284L149.915 9.536C149.715 10 149.367 10.38 148.871 10.676C148.375 10.972 147.811 11.12 147.179 11.12ZM145.067 7.496H149.339C149.307 7.088 149.191 6.728 148.991 6.416C148.791 6.104 148.535 5.86 148.223 5.684C147.911 5.508 147.567 5.42 147.191 5.42C146.823 5.42 146.483 5.508 146.171 5.684C145.859 5.86 145.603 6.104 145.403 6.416C145.211 6.728 145.099 7.088 145.067 7.496ZM154.809 5.66C154.281 5.668 153.813 5.804 153.405 6.068C153.005 6.324 152.721 6.68 152.553 7.136V11H151.497V4.736H152.481V6.188C152.697 5.756 152.981 5.408 153.333 5.144C153.693 4.872 154.069 4.72 154.461 4.688C154.541 4.688 154.609 4.688 154.665 4.688C154.721 4.688 154.769 4.692 154.809 4.7V5.66ZM157.656 11L155.196 4.736H156.3L158.268 9.992L160.236 4.736H161.268L158.808 11H157.656ZM164.886 11.12C164.262 11.12 163.71 10.972 163.23 10.676C162.75 10.38 162.374 9.984 162.102 9.488C161.83 8.992 161.694 8.452 161.694 7.868C161.694 7.276 161.83 6.736 162.102 6.248C162.374 5.76 162.75 5.368 163.23 5.072C163.718 4.776 164.274 4.628 164.898 4.628C165.53 4.628 166.078 4.78 166.542 5.084C167.014 5.38 167.378 5.772 167.634 6.26C167.898 6.74 168.03 7.26 168.03 7.82C168.03 7.996 168.022 8.132 168.006 8.228H162.81C162.842 8.636 162.954 9 163.146 9.32C163.346 9.632 163.602 9.88 163.914 10.064C164.226 10.24 164.562 10.328 164.922 10.328C165.306 10.328 165.666 10.232 166.002 10.04C166.346 9.848 166.582 9.596 166.71 9.284L167.622 9.536C167.422 10 167.074 10.38 166.578 10.676C166.082 10.972 165.518 11.12 164.886 11.12ZM162.774 7.496H167.046C167.014 7.088 166.898 6.728 166.698 6.416C166.498 6.104 166.242 5.86 165.93 5.684C165.618 5.508 165.274 5.42 164.898 5.42C164.53 5.42 164.19 5.508 163.878 5.684C163.566 5.86 163.31 6.104 163.11 6.416C162.918 6.728 162.806 7.088 162.774 7.496ZM168.796 7.88C168.796 7.288 168.916 6.748 169.156 6.26C169.404 5.764 169.74 5.368 170.164 5.072C170.596 4.776 171.088 4.628 171.64 4.628C172.144 4.628 172.596 4.76 172.996 5.024C173.396 5.288 173.708 5.608 173.932 5.984V2.24H174.988V9.8C174.988 10.048 175.1 10.176 175.324 10.184V11C175.124 11.032 174.968 11.048 174.856 11.048C174.648 11.048 174.464 10.976 174.304 10.832C174.152 10.688 174.076 10.528 174.076 10.352V9.824C173.828 10.224 173.496 10.54 173.08 10.772C172.664 11.004 172.232 11.12 171.784 11.12C171.208 11.12 170.692 10.972 170.236 10.676C169.788 10.372 169.436 9.976 169.18 9.488C168.924 8.992 168.796 8.456 168.796 7.88ZM173.932 8.804V7.004C173.836 6.732 173.68 6.488 173.464 6.272C173.248 6.048 173.004 5.872 172.732 5.744C172.468 5.608 172.204 5.54 171.94 5.54C171.532 5.54 171.172 5.652 170.86 5.876C170.556 6.1 170.316 6.392 170.14 6.752C169.972 7.112 169.888 7.492 169.888 7.892C169.888 8.308 169.98 8.692 170.164 9.044C170.356 9.396 170.616 9.68 170.944 9.896C171.272 10.104 171.636 10.208 172.036 10.208C172.292 10.208 172.556 10.148 172.828 10.028C173.1 9.9 173.34 9.728 173.548 9.512C173.756 9.296 173.884 9.06 173.932 8.804Z" fill="#86928B"/>
</svg>
