<svg width="25" height="25" viewBox="0 0 25 25" fill="none" xmlns="http://www.w3.org/2000/svg">
<g clip-path="url(#clip0_1_1487)">
<path d="M7.30518 8.39111V6.39111C7.30518 5.06503 7.83196 3.79326 8.76964 2.85558C9.70732 1.9179 10.9791 1.39111 12.3052 1.39111C13.6313 1.39111 14.903 1.9179 15.8407 2.85558C16.7784 3.79326 17.3052 5.06503 17.3052 6.39111V8.39111H20.3052C20.5704 8.39111 20.8247 8.49647 21.0123 8.68401C21.1998 8.87154 21.3052 9.1259 21.3052 9.39111V21.3911C21.3052 21.6563 21.1998 21.9107 21.0123 22.0982C20.8247 22.2858 20.5704 22.3911 20.3052 22.3911H4.30518C4.03996 22.3911 3.78561 22.2858 3.59807 22.0982C3.41053 21.9107 3.30518 21.6563 3.30518 21.3911V9.39111C3.30518 9.1259 3.41053 8.87154 3.59807 8.68401C3.78561 8.49647 4.03996 8.39111 4.30518 8.39111H7.30518ZM7.30518 10.3911H5.30518V20.3911H19.3052V10.3911H17.3052V12.3911H15.3052V10.3911H9.30518V12.3911H7.30518V10.3911ZM9.30518 8.39111H15.3052V6.39111C15.3052 5.59546 14.9891 4.8324 14.4265 4.26979C13.8639 3.70718 13.1008 3.39111 12.3052 3.39111C11.5095 3.39111 10.7465 3.70718 10.1839 4.26979C9.62125 4.8324 9.30518 5.59546 9.30518 6.39111V8.39111Z" fill="#C4C4C4"/>
</g>
<defs>
<clipPath id="clip0_1_1487">
<rect width="24" height="24" fill="white" transform="translate(0.305176 0.391113)"/>
</clipPath>
</defs>
</svg>
