<svg width="25" height="25" viewBox="0 0 25 25" fill="none" xmlns="http://www.w3.org/2000/svg">
<path d="M12.9141 21.391C12.2691 20.819 11.5401 20.224 10.7691 19.591H10.7591C8.04409 17.371 4.96709 14.859 3.60809 11.849C3.1616 10.8907 2.92499 9.84814 2.91407 8.79102C2.91109 7.3405 3.49286 5.95 4.52789 4.93378C5.56293 3.91757 6.96387 3.36141 8.41409 3.39102C9.59471 3.39288 10.7499 3.7341 11.7421 4.37402C12.1781 4.65699 12.5725 4.99927 12.9141 5.39102C13.2576 5.00081 13.6521 4.65872 14.0871 4.37402C15.0788 3.73397 16.2337 3.39274 17.4141 3.39102C18.8643 3.36141 20.2652 3.91757 21.3003 4.93378C22.3353 5.95 22.9171 7.3405 22.9141 8.79102C22.9039 9.84983 22.6673 10.8942 22.2201 11.854C20.8611 14.864 17.7851 17.375 15.0701 19.591L15.0601 19.599C14.2881 20.228 13.5601 20.823 12.9151 21.399L12.9141 21.391ZM8.41409 5.39102C7.4826 5.37936 6.58416 5.73586 5.91409 6.38302C5.26847 7.01718 4.90764 7.88606 4.914 8.79102C4.92541 9.56152 5.09991 10.3209 5.42609 11.019C6.0676 12.3177 6.93319 13.4931 7.98309 14.491C8.97409 15.491 10.1141 16.459 11.1001 17.273C11.3731 17.498 11.6511 17.725 11.9291 17.952L12.1041 18.095C12.3711 18.313 12.6471 18.539 12.9141 18.761L12.9271 18.749L12.9331 18.744H12.9391L12.9481 18.737H12.9531H12.9581L12.9761 18.722L13.0171 18.689L13.0241 18.683L13.0351 18.675H13.0411L13.0501 18.667L13.7141 18.122L13.8881 17.979C14.1691 17.75 14.4471 17.523 14.7201 17.298C15.7061 16.484 16.8471 15.517 17.8381 14.512C18.8881 13.5146 19.7537 12.3395 20.3951 11.041C20.7272 10.3368 20.9042 9.56952 20.9141 8.79102C20.9183 7.88886 20.5576 7.02331 19.9141 6.39102C19.2453 5.74094 18.3467 5.3815 17.4141 5.39102C16.276 5.38135 15.188 5.85839 14.4241 6.70202L12.9141 8.44202L11.4041 6.70202C10.6401 5.85839 9.55216 5.38135 8.41409 5.39102Z" fill="#C4C4C4"/>
</svg>
