<svg width="25" height="25" viewBox="0 0 25 25" fill="none" xmlns="http://www.w3.org/2000/svg">
<path d="M11.4561 4.90137C12.9864 4.92681 14.4615 5.49636 15.6143 6.51367C16.8439 7.59891 17.6145 9.11195 17.7686 10.7451L17.79 11.0508C17.8599 12.5504 17.4028 14.0288 16.4971 15.2314L19.8379 18.5732L19.8975 18.6387C19.953 18.7064 19.9986 18.7821 20.0322 18.8633L20.0615 18.9463C20.087 19.0303 20.0996 19.118 20.0996 19.2061C20.0996 19.2939 20.0869 19.3811 20.0615 19.4648L20.0322 19.5479C19.9985 19.6293 19.9532 19.7056 19.8975 19.7734L19.8379 19.8379C19.7757 19.9 19.7051 19.9528 19.6279 19.9941L19.5479 20.0322C19.4395 20.0771 19.3233 20.0996 19.2061 20.0996C19.1179 20.0996 19.0303 20.0871 18.9463 20.0615L18.8643 20.0322C18.7829 19.9985 18.7065 19.9531 18.6387 19.8975L18.5742 19.8379L15.2334 16.4951C14.0313 17.4039 12.5524 17.863 11.0518 17.7939L10.7461 17.7734C9.21414 17.6298 7.78756 16.9427 6.7207 15.8428L6.5127 15.6182C5.4271 14.387 4.85139 12.7874 4.90332 11.1465C4.95532 9.50571 5.6308 7.94608 6.79199 6.78613L7.01367 6.5752C8.14692 5.54568 9.61269 4.95089 11.1494 4.90332L11.4561 4.90137ZM11.1299 6.71973C10.0607 6.77693 9.04352 7.20077 8.25 7.91992L8.08301 8.07812C7.21361 8.94787 6.72281 10.1264 6.71777 11.3564L6.72266 11.5869C6.77462 12.7334 7.24831 13.8236 8.05664 14.6455L8.22266 14.8057C8.61784 15.1696 9.07329 15.4628 9.56934 15.6719L9.7832 15.7568C10.288 15.9409 10.8219 16.0359 11.3604 16.0381L11.5908 16.0332C12.1272 16.0088 12.6557 15.8915 13.1533 15.6865L13.3643 15.5938C13.8503 15.3648 14.2941 15.0537 14.6748 14.6729L14.834 14.5059C15.1945 14.1076 15.4835 13.6492 15.6885 13.1514L15.7715 12.9355C15.9512 12.4292 16.0422 11.8949 16.04 11.3564L16.0332 11.126C16.0086 10.6659 15.9155 10.2122 15.7578 9.7793L15.6738 9.56445C15.4648 9.06833 15.1713 8.61302 14.8076 8.21777L14.6475 8.05176C13.7711 7.18926 12.5897 6.70798 11.3604 6.71289L11.1299 6.71973Z" fill="white" stroke="white" stroke-width="0.2"/>
</svg>
