<svg width="97" height="17" viewBox="0 0 97 17" fill="none" xmlns="http://www.w3.org/2000/svg">
<path d="M0.782 13.5V0.899999H3.086V9.846L9.854 0.899999H12.032V13.5H9.728V4.572L2.96 13.5H0.782ZM15.3128 13.5V3.888H17.5628V7.794H22.4048V3.888H24.6548V13.5H22.4048V9.702H17.5628V13.5H15.3128ZM29.6682 13.5V5.256L30.1902 5.796H26.2842V3.888H35.2842V5.796H31.3962L31.9182 5.256V13.5H29.6682ZM40.9764 13.626C39.9084 13.626 38.9724 13.416 38.1684 12.996C37.3764 12.564 36.7584 11.976 36.3144 11.232C35.8824 10.488 35.6664 9.642 35.6664 8.694C35.6664 7.734 35.8764 6.888 36.2964 6.156C36.7284 5.412 37.3164 4.83 38.0604 4.41C38.8164 3.99 39.6744 3.78 40.6344 3.78C41.5704 3.78 42.4044 3.984 43.1364 4.392C43.8684 4.8 44.4444 5.376 44.8644 6.12C45.2844 6.864 45.4944 7.74 45.4944 8.748C45.4944 8.844 45.4884 8.952 45.4764 9.072C45.4764 9.192 45.4704 9.306 45.4584 9.414H37.4484V7.92H44.2704L43.3884 8.388C43.4004 7.836 43.2864 7.35 43.0464 6.93C42.8064 6.51 42.4764 6.18 42.0564 5.94C41.6484 5.7 41.1744 5.58 40.6344 5.58C40.0824 5.58 39.5964 5.7 39.1764 5.94C38.7684 6.18 38.4444 6.516 38.2044 6.948C37.9764 7.368 37.8624 7.866 37.8624 8.442V8.802C37.8624 9.378 37.9944 9.888 38.2584 10.332C38.5224 10.776 38.8944 11.118 39.3744 11.358C39.8544 11.598 40.4064 11.718 41.0304 11.718C41.5704 11.718 42.0564 11.634 42.4884 11.466C42.9204 11.298 43.3044 11.034 43.6404 10.674L44.8464 12.06C44.4144 12.564 43.8684 12.954 43.2084 13.23C42.5604 13.494 41.8164 13.626 40.9764 13.626ZM53.2834 13.626C52.5034 13.626 51.7894 13.446 51.1414 13.086C50.5054 12.726 49.9954 12.186 49.6114 11.466C49.2394 10.734 49.0534 9.81 49.0534 8.694C49.0534 7.566 49.2334 6.642 49.5934 5.922C49.9654 5.202 50.4694 4.668 51.1054 4.32C51.7414 3.96 52.4674 3.78 53.2834 3.78C54.2314 3.78 55.0654 3.984 55.7854 4.392C56.5174 4.8 57.0934 5.37 57.5134 6.102C57.9454 6.834 58.1614 7.698 58.1614 8.694C58.1614 9.69 57.9454 10.56 57.5134 11.304C57.0934 12.036 56.5174 12.606 55.7854 13.014C55.0654 13.422 54.2314 13.626 53.2834 13.626ZM47.9554 16.992V3.888H50.0974V6.156L50.0254 8.712L50.2054 11.268V16.992H47.9554ZM53.0314 11.7C53.5714 11.7 54.0514 11.58 54.4714 11.34C54.9034 11.1 55.2454 10.752 55.4974 10.296C55.7494 9.84 55.8754 9.306 55.8754 8.694C55.8754 8.07 55.7494 7.536 55.4974 7.092C55.2454 6.636 54.9034 6.288 54.4714 6.048C54.0514 5.808 53.5714 5.688 53.0314 5.688C52.4914 5.688 52.0054 5.808 51.5734 6.048C51.1414 6.288 50.7994 6.636 50.5474 7.092C50.2954 7.536 50.1694 8.07 50.1694 8.694C50.1694 9.306 50.2954 9.84 50.5474 10.296C50.7994 10.752 51.1414 11.1 51.5734 11.34C52.0054 11.58 52.4914 11.7 53.0314 11.7ZM65.2247 7.056C66.4607 7.056 67.4027 7.332 68.0507 7.884C68.6987 8.436 69.0227 9.216 69.0227 10.224C69.0227 11.268 68.6627 12.084 67.9427 12.672C67.2227 13.248 66.2087 13.53 64.9007 13.518L60.4007 13.5V3.888H62.6507V7.038L65.2247 7.056ZM64.7027 11.862C65.3627 11.874 65.8667 11.736 66.2147 11.448C66.5627 11.16 66.7367 10.74 66.7367 10.188C66.7367 9.636 66.5627 9.24 66.2147 9C65.8787 8.748 65.3747 8.616 64.7027 8.604L62.6507 8.586V11.844L64.7027 11.862ZM75.4823 13.626C74.4143 13.626 73.4783 13.416 72.6743 12.996C71.8823 12.564 71.2643 11.976 70.8203 11.232C70.3883 10.488 70.1723 9.642 70.1723 8.694C70.1723 7.734 70.3823 6.888 70.8023 6.156C71.2343 5.412 71.8223 4.83 72.5663 4.41C73.3223 3.99 74.1803 3.78 75.1403 3.78C76.0763 3.78 76.9103 3.984 77.6423 4.392C78.3743 4.8 78.9503 5.376 79.3703 6.12C79.7903 6.864 80.0003 7.74 80.0003 8.748C80.0003 8.844 79.9943 8.952 79.9823 9.072C79.9823 9.192 79.9763 9.306 79.9643 9.414H71.9543V7.92H78.7763L77.8943 8.388C77.9063 7.836 77.7923 7.35 77.5523 6.93C77.3123 6.51 76.9823 6.18 76.5623 5.94C76.1543 5.7 75.6803 5.58 75.1403 5.58C74.5883 5.58 74.1023 5.7 73.6823 5.94C73.2743 6.18 72.9503 6.516 72.7103 6.948C72.4823 7.368 72.3683 7.866 72.3683 8.442V8.802C72.3683 9.378 72.5003 9.888 72.7643 10.332C73.0283 10.776 73.4003 11.118 73.8803 11.358C74.3603 11.598 74.9123 11.718 75.5363 11.718C76.0763 11.718 76.5623 11.634 76.9943 11.466C77.4263 11.298 77.8103 11.034 78.1463 10.674L79.3523 12.06C78.9203 12.564 78.3743 12.954 77.7143 13.23C77.0663 13.494 76.3223 13.626 75.4823 13.626ZM87.7892 13.626C87.0092 13.626 86.2952 13.446 85.6472 13.086C85.0112 12.726 84.5012 12.186 84.1172 11.466C83.7452 10.734 83.5592 9.81 83.5592 8.694C83.5592 7.566 83.7392 6.642 84.0992 5.922C84.4712 5.202 84.9752 4.668 85.6112 4.32C86.2472 3.96 86.9732 3.78 87.7892 3.78C88.7372 3.78 89.5712 3.984 90.2912 4.392C91.0232 4.8 91.5992 5.37 92.0192 6.102C92.4512 6.834 92.6672 7.698 92.6672 8.694C92.6672 9.69 92.4512 10.56 92.0192 11.304C91.5992 12.036 91.0232 12.606 90.2912 13.014C89.5712 13.422 88.7372 13.626 87.7892 13.626ZM82.4612 16.992V3.888H84.6032V6.156L84.5312 8.712L84.7112 11.268V16.992H82.4612ZM87.5372 11.7C88.0772 11.7 88.5572 11.58 88.9772 11.34C89.4092 11.1 89.7512 10.752 90.0032 10.296C90.2552 9.84 90.3812 9.306 90.3812 8.694C90.3812 8.07 90.2552 7.536 90.0032 7.092C89.7512 6.636 89.4092 6.288 88.9772 6.048C88.5572 5.808 88.0772 5.688 87.5372 5.688C86.9972 5.688 86.5112 5.808 86.0792 6.048C85.6472 6.288 85.3052 6.636 85.0532 7.092C84.8012 7.536 84.6752 8.07 84.6752 8.694C84.6752 9.306 84.8012 9.84 85.0532 10.296C85.3052 10.752 85.6472 11.1 86.0792 11.34C86.5112 11.58 86.9972 11.7 87.5372 11.7ZM95.4323 13.626C95.0243 13.626 94.6763 13.488 94.3883 13.212C94.1003 12.924 93.9563 12.564 93.9563 12.132C93.9563 11.676 94.1003 11.316 94.3883 11.052C94.6763 10.776 95.0243 10.638 95.4323 10.638C95.8403 10.638 96.1883 10.776 96.4763 11.052C96.7643 11.316 96.9083 11.676 96.9083 12.132C96.9083 12.564 96.7643 12.924 96.4763 13.212C96.1883 13.488 95.8403 13.626 95.4323 13.626Z" fill="white"/>
</svg>
